<?xml version="1.0" encoding="UTF-8" standalone="no"?>
<!-- Created with Inkscape (http://www.inkscape.org/) -->

<svg
   width="210mm"
   height="297mm"
   viewBox="0 0 210 297"
   version="1.1"
   id="svg1"
   inkscape:export-filename="bitna slika.svg"
   inkscape:export-xdpi="96"
   inkscape:export-ydpi="96"
   xmlns:inkscape="http://www.inkscape.org/namespaces/inkscape"
   xmlns:sodipodi="http://sodipodi.sourceforge.net/DTD/sodipodi-0.dtd"
   xmlns="http://www.w3.org/2000/svg"
   xmlns:svg="http://www.w3.org/2000/svg">
  <sodipodi:namedview
     id="namedview1"
     pagecolor="#ffffff"
     bordercolor="#000000"
     borderopacity="0.25"
     inkscape:showpageshadow="2"
     inkscape:pageopacity="0.0"
     inkscape:pagecheckerboard="0"
     inkscape:deskcolor="#d1d1d1"
     inkscape:document-units="mm" />
  <defs
     id="defs1">
    <linearGradient
       id="swatch33"
       inkscape:swatch="solid">
      <stop
         style="stop-color:#fef2f2;stop-opacity:1;"
         offset="0"
         id="stop33" />
    </linearGradient>
    <linearGradient
       id="swatch21"
       inkscape:swatch="solid">
      <stop
         style="stop-color:#040404;stop-opacity:1;"
         offset="0"
         id="stop21" />
    </linearGradient>
  </defs>
  <g
     inkscape:label="Plast 1"
     inkscape:groupmode="layer"
     id="layer1">
    <ellipse
       style="fill:none;fill-opacity:1;stroke:#000000;stroke-width:0.346526;stroke-dasharray:none;stroke-dashoffset:0;stroke-opacity:0.976109"
       id="path1"
       cx="122.79474"
       cy="128.87367"
       rx="109.91885"
       ry="108.35567" />
    <ellipse
       style="fill:none;fill-opacity:1;stroke:#000000;stroke-width:0.230589;stroke-dasharray:none;stroke-dashoffset:0;stroke-opacity:0.976109"
       id="path1-6"
       cx="122.86514"
       cy="131.23628"
       rx="71.245232"
       ry="74.02417" />
    <path
       style="fill:none;fill-opacity:0.976109;stroke:#000000;stroke-width:1.48863;stroke-dasharray:none;stroke-dashoffset:0;stroke-opacity:0.976109"
       d="M 428.00166,893.94629 C 349.95137,885.12438 291.79642,864.53973 231.66341,824.45001 118.72928,749.15861 49.916855,621.42503 49.916855,487.08164 c 0,-119.07786 53.948385,-233.60844 146.503635,-311.02219 64.6539,-54.07691 143.13565,-86.955002 227.45338,-95.286278 17.50418,-1.729554 62.96027,-1.729554 80.46444,0 80.71374,7.975172 156.80001,38.781278 220.37615,89.226738 17.70407,14.04757 50.31564,46.66105 64.34691,64.35069 51.1107,64.43675 81.0331,139.73926 87.90523,221.22172 6.4052,75.94621 -11.80929,160.02036 -48.99506,226.15048 -53.9644,95.96879 -141.05778,165.5993 -245.70548,196.43974 -40.78646,12.02007 -64.85486,15.43342 -112.25197,15.91944 -20.57953,0.21103 -39.48512,0.14997 -42.01243,-0.13569 z m 65.36794,-118.7734 c 71.63384,-7.87011 139.55433,-46.95291 183.3145,-105.48279 38.62572,-51.66249 57.36356,-107.96821 57.49294,-172.76179 0.0945,-47.33501 -8.47409,-85.46217 -28.58182,-127.17858 C 668.23112,292.23249 598.4282,237.10377 516.68466,220.55258 402.69032,197.47132 288.96724,251.15065 230.00248,355.87168 c -38.36306,68.13256 -46.37358,156.05951 -21.1443,232.08884 6.69847,20.18609 20.55298,48.6933 32.32601,66.51441 43.85593,66.38582 111.82768,109.60823 188.7868,120.04722 16.24595,2.20365 46.44281,2.5136 63.39861,0.65074 z"
       id="path35"
       transform="scale(0.26458333)" />
    <path
       style="fill:none;fill-opacity:0.976109;stroke:#000000;stroke-width:1.48863;stroke-dasharray:none;stroke-dashoffset:0;stroke-opacity:0.976109"
       d="m 426.34794,891.9951 c -28.70716,-2.37059 -67.367,-10.71315 -98.12395,-21.17456 -43.0581,-14.64542 -86.10528,-38.3595 -123.41338,-67.98665 -17.88215,-14.20058 -50.52366,-46.8177 -64.38223,-64.3341 C 69.693093,649.09467 39.477587,538.10967 55.89571,428.00166 c 6.530417,-43.79619 23.676902,-94.40497 45.14848,-133.25819 9.76688,-17.67334 26.63339,-42.96648 39.39699,-59.07998 14.00511,-17.68087 46.65578,-50.3359 64.36943,-64.37804 64.95683,-51.49321 142.05216,-82.180766 224.50394,-89.363093 22.20158,-1.933967 71.63102,-0.784708 90.5893,2.106247 60.92523,9.290506 113.91236,28.383676 162.8899,58.695086 49.03312,30.34581 93.12159,72.66818 124.46887,119.48293 36.33318,54.26076 58.5508,113.59536 66.48518,177.55593 9.67938,78.0273 -5.82142,162.31073 -42.86876,233.09282 -9.78684,18.69858 -28.65512,47.40964 -43.14009,65.64442 -14.19682,17.87207 -46.81147,50.51381 -64.33738,64.39084 -48.16307,38.13558 -103.74244,65.17593 -164.11106,79.84294 -25.0465,6.08524 -42.25744,8.16099 -78.11687,9.42143 -36.93101,1.29811 -37.17862,1.29738 -54.8257,-0.1599 z m 66.17438,-115.49593 c 59.71252,-6.09273 121.17839,-36.28681 163.36332,-80.24948 32.79297,-34.17494 57.16099,-77.06975 69.9735,-123.17385 7.99026,-28.75179 11.55243,-76.39452 8.16034,-109.14124 -5.21498,-50.34447 -25.25321,-101.22336 -56.19114,-142.67434 -9.49313,-12.71899 -33.41568,-37.44648 -46.32896,-47.88782 -20.88522,-16.88723 -48.03234,-32.53004 -73.56973,-42.39259 -47.37394,-18.29584 -107.55629,-21.81478 -157.3295,-9.19928 -112.75618,28.57914 -195.34731,127.20894 -206.21798,246.26419 -5.08136,55.65078 4.15207,106.84764 28.05855,155.57729 10.97075,22.36214 19.14422,35.41031 33.05694,52.77218 39.50552,49.29948 95.06282,83.68585 155.43645,96.20509 24.60777,5.10273 55.38243,6.57373 81.58821,3.89985 z"
       id="path36"
       transform="scale(0.26458333)" />
    <path
       style="fill:#00ffff;fill-opacity:0.976109;stroke:#000000;stroke-width:0.394496;stroke-dasharray:none;stroke-dashoffset:0;stroke-opacity:0.976109"
       d="M 110.94145,235.17472 C 89.901701,232.79114 71.561676,225.40718 54.503164,212.45189 50.12169,209.12432 39.959988,199.09655 36.338744,194.52687 17.932552,171.29997 9.8247227,141.68196 14.095272,113.27118 15.635658,103.02341 19.253288,91.67175 24.178265,81.632014 26.868832,76.147195 32.967024,66.635894 36.88086,61.819872 40.146799,57.801096 49.754448,48.32272 53.798605,45.129763 71.085166,31.481615 92.076086,23.328223 114.25453,21.647191 c 7.61795,-0.57741 19.4378,-0.005 26.315,1.274332 24.28184,4.517106 43.47178,14.647868 60.30961,31.838656 29.86875,30.494914 38.44191,75.491711 21.8876,114.878591 -3.20093,7.61586 -8.44447,16.43757 -14.36909,24.17453 -3.36954,4.40026 -13.41703,14.51143 -18.04784,18.16217 -13.94576,10.9943 -32.46716,19.30983 -49.25756,22.11511 -7.20371,1.20357 -23.82206,1.80112 -30.1508,1.08414 z m 18.57766,-29.72578 c 13.40841,-1.45592 26.60124,-6.93979 37.46802,-15.57431 11.07012,-8.79613 20.10346,-22.4434 24.51202,-37.03202 2.43587,-8.06062 3.55572,-21.72247 2.54237,-31.01635 -1.39061,-12.75396 -6.90675,-26.67732 -14.6599,-37.003264 -3.45026,-4.595166 -10.20985,-11.385733 -14.50761,-14.574044 -13.0204,-9.659278 -26.72653,-14.161377 -43.053,-14.141767 -11.46465,0.01378 -20.43453,2.085603 -30.735305,7.099132 C 78.86169,69.15591 68.306102,78.803376 60.846126,90.844318 52.541729,104.24821 48.494578,122.41119 50.155049,138.82422 c 1.368025,13.52231 6.823484,27.57919 14.785791,38.09802 12.125937,16.01929 30.687754,26.69067 49.58634,28.50768 4.469,0.42967 11.13207,0.43811 14.99193,0.019 z"
       id="path37" />
    <text
       xml:space="preserve"
       style="font-size:3.175px;fill:#00ffff;fill-opacity:0.976109;stroke:#000000;stroke-width:0.3;stroke-dasharray:none;stroke-dashoffset:0;stroke-opacity:0.976109"
       x="25.357893"
       y="37.168419"
       id="text37"><tspan
         sodipodi:role="line"
         id="tspan37"
         style="stroke-width:0.3"
         x="25.357893"
         y="37.168419">a</tspan></text>
    <text
       xml:space="preserve"
       style="font-size:14.1111px;fill:#2b0000;fill-opacity:0.976109;stroke:#000000;stroke-width:0.3;stroke-dasharray:none;stroke-dashoffset:0;stroke-opacity:0.976109"
       x="33.34737"
       y="110.46317"
       id="text39"><tspan
         sodipodi:role="line"
         id="tspan39"
         style="stroke-width:0.3"
         x="33.34737"
         y="110.46317">P</tspan></text>
    <text
       xml:space="preserve"
       style="font-size:14.1111px;fill:#2b0000;fill-opacity:0.976109;stroke:#000000;stroke-width:0.3;stroke-dasharray:none;stroke-dashoffset:0;stroke-opacity:0.976109"
       x="40.642105"
       y="87.884209"
       id="text40"><tspan
         sodipodi:role="line"
         id="tspan40"
         style="stroke-width:0.3"
         x="40.642105"
         y="87.884209">R</tspan></text>
    <text
       xml:space="preserve"
       style="font-size:14.1111px;fill:#2b0000;fill-opacity:0.976109;stroke:#000000;stroke-width:0.3;stroke-dasharray:none;stroke-dashoffset:0;stroke-opacity:0.976109"
       x="52.452637"
       y="70.168442"
       id="text41"><tspan
         sodipodi:role="line"
         id="tspan41"
         style="stroke-width:0.3"
         x="52.452637"
         y="70.168442">O</tspan></text>
    <text
       xml:space="preserve"
       style="font-size:14.1111px;fill:#2b0000;fill-opacity:0.976109;stroke:#000000;stroke-width:0.3;stroke-dasharray:none;stroke-dashoffset:0;stroke-opacity:0.976109"
       x="73.989471"
       y="53.147369"
       id="text42"><tspan
         sodipodi:role="line"
         id="tspan42"
         style="stroke-width:0.3"
         x="73.989471"
         y="53.147369">G</tspan></text>
    <text
       xml:space="preserve"
       style="font-size:14.1111px;fill:#2b0000;fill-opacity:0.976109;stroke:#000000;stroke-width:0.3;stroke-dasharray:none;stroke-dashoffset:0;stroke-opacity:0.976109"
       x="97.263145"
       y="44.810528"
       id="text43"><tspan
         sodipodi:role="line"
         id="tspan43"
         style="stroke-width:0.3"
         x="97.263145"
         y="44.810528">R</tspan></text>
    <text
       xml:space="preserve"
       style="font-size:14.1111px;fill:#2b0000;fill-opacity:0.976109;stroke:#000000;stroke-width:0.3;stroke-dasharray:none;stroke-dashoffset:0;stroke-opacity:0.976109"
       x="118.79999"
       y="43.073685"
       id="text44"><tspan
         sodipodi:role="line"
         id="tspan44"
         style="stroke-width:0.3"
         x="118.79999"
         y="43.073685">A</tspan></text>
    <text
       xml:space="preserve"
       style="font-size:14.1111px;fill:#2b0000;fill-opacity:0.976109;stroke:#000000;stroke-width:0.3;stroke-dasharray:none;stroke-dashoffset:0;stroke-opacity:0.976109"
       x="144.50526"
       y="46.547363"
       id="text45"><tspan
         sodipodi:role="line"
         id="tspan45"
         style="stroke-width:0.3"
         x="144.50526"
         y="46.547363">M</tspan></text>
    <text
       xml:space="preserve"
       style="font-size:14.1111px;fill:#2b0000;fill-opacity:0.976109;stroke:#000000;stroke-width:0.3;stroke-dasharray:none;stroke-dashoffset:0;stroke-opacity:0.976109"
       x="167.0842"
       y="59.747364"
       id="text46"><tspan
         sodipodi:role="line"
         id="tspan46"
         style="stroke-width:0.3"
         x="167.0842"
         y="59.747364">S</tspan></text>
    <text
       xml:space="preserve"
       style="font-size:14.1111px;fill:#2b0000;fill-opacity:0.976109;stroke:#000000;stroke-width:0.3;stroke-dasharray:none;stroke-dashoffset:0;stroke-opacity:0.976109"
       x="190.01051"
       y="80.589485"
       id="text47"><tspan
         sodipodi:role="line"
         id="tspan47"
         style="stroke-width:0.3"
         x="190.01051"
         y="80.589485">K</tspan></text>
    <text
       xml:space="preserve"
       style="font-size:14.1111px;fill:#2b0000;fill-opacity:0.976109;stroke:#000000;stroke-width:0.3;stroke-dasharray:none;stroke-dashoffset:0;stroke-opacity:0.976109"
       x="200.77895"
       y="106.64211"
       id="text48"><tspan
         sodipodi:role="line"
         id="tspan48"
         style="stroke-width:0.3"
         x="200.77895"
         y="106.64211">I</tspan></text>
    <text
       xml:space="preserve"
       style="font-size:14.1111px;fill:#2b0000;fill-opacity:0.976109;stroke:#000000;stroke-width:0.3;stroke-dasharray:none;stroke-dashoffset:0;stroke-opacity:0.976109"
       x="66.347374"
       y="213.97896"
       id="text49"><tspan
         sodipodi:role="line"
         id="tspan49"
         style="stroke-width:0.3"
         x="66.347374"
         y="213.97896">J</tspan></text>
    <text
       xml:space="preserve"
       style="font-size:14.1111px;fill:#2b0000;fill-opacity:0.976109;stroke:#000000;stroke-width:0.3;stroke-dasharray:none;stroke-dashoffset:0;stroke-opacity:0.976109"
       x="88.926315"
       y="222.66316"
       id="text50"><tspan
         sodipodi:role="line"
         id="tspan50"
         style="stroke-width:0.3"
         x="88.926315"
         y="222.66316">E</tspan></text>
    <text
       xml:space="preserve"
       style="font-size:14.1111px;fill:#2b0000;fill-opacity:0.976109;stroke:#000000;stroke-width:0.3;stroke-dasharray:none;stroke-dashoffset:0;stroke-opacity:0.976109"
       x="111.15789"
       y="226.48419"
       id="text51"><tspan
         sodipodi:role="line"
         id="tspan51"
         style="stroke-width:0.3"
         x="111.15789"
         y="226.48419">Z</tspan></text>
    <text
       xml:space="preserve"
       style="font-size:14.1111px;fill:#2b0000;fill-opacity:0.976109;stroke:#000000;stroke-width:0.3;stroke-dasharray:none;stroke-dashoffset:0;stroke-opacity:0.976109"
       x="134.77895"
       y="226.83157"
       id="text52"><tspan
         sodipodi:role="line"
         id="tspan52"
         style="stroke-width:0.3"
         x="134.77895"
         y="226.83157">I</tspan></text>
    <text
       xml:space="preserve"
       style="font-size:14.1111px;fill:#2b0000;fill-opacity:0.976109;stroke:#000000;stroke-width:0.3;stroke-dasharray:none;stroke-dashoffset:0;stroke-opacity:0.976109"
       x="159.78949"
       y="218.49472"
       id="text53"><tspan
         sodipodi:role="line"
         id="tspan53"
         style="stroke-width:0.3"
         x="159.78949"
         y="218.49472">K</tspan></text>
    <text
       xml:space="preserve"
       style="font-size:14.1111px;fill:#2b0000;fill-opacity:0.976109;stroke:#000000;stroke-width:0.3;stroke-dasharray:none;stroke-dashoffset:0;stroke-opacity:0.976109"
       x="181.32631"
       y="205.29474"
       id="text54"><tspan
         sodipodi:role="line"
         id="tspan54"
         style="stroke-width:0.3"
         x="181.32631"
         y="205.29474">I</tspan></text>
    <text
       xml:space="preserve"
       style="font-size:11.2889px;fill:#2b0000;fill-opacity:0.976109;stroke:#000000;stroke-width:0.3;stroke-dasharray:none;stroke-dashoffset:0;stroke-opacity:0.976109"
       x="91.357895"
       y="84.757889"
       id="text57"><tspan
         sodipodi:role="line"
         id="tspan57"
         style="stroke-width:0.3"
         x="91.357895"
         y="84.757889">= if, (), 0</tspan></text>
    <text
       xml:space="preserve"
       style="font-size:11.2889px;fill:#2b0000;fill-opacity:0.976109;stroke:#000000;stroke-width:0.3;stroke-dasharray:none;stroke-dashoffset:0;stroke-opacity:0.976109"
       x="95.873688"
       y="122.62105"
       id="text58"><tspan
         sodipodi:role="line"
         id="tspan58"
         style="stroke-width:0.3"
         x="95.873688"
         y="122.62105">101101</tspan></text>
    <text
       xml:space="preserve"
       style="font-size:11.0965px;fill:#2b0000;fill-opacity:0.976109;stroke:#000000;stroke-width:0.29489;stroke-dasharray:none;stroke-dashoffset:0;stroke-opacity:0.976109"
       x="78.692581"
       y="162.16489"
       id="text59"><tspan
         sodipodi:role="line"
         id="tspan59"
         style="stroke-width:0.29489"
         x="78.692581"
         y="162.16489">while, =for, {}</tspan></text>
    <text
       xml:space="preserve"
       style="font-size:7.05556px;fill:#2b0000;fill-opacity:0.976109;stroke:#000000;stroke-width:0.3;stroke-dasharray:none;stroke-dashoffset:0;stroke-opacity:0.976109"
       x="36.47369"
       y="248.71579"
       id="text60"><tspan
         sodipodi:role="line"
         id="tspan60"
         style="font-size:7.05556px;stroke-width:0.3"
         x="36.47369"
         y="248.71579">logo by anze is marked with CC0 1.0 Universal </tspan></text>
  </g>
</svg>
